<?xml version="1.0" encoding="utf-8"?>
<!-- Generator: Adobe Illustrator 24.1.1, SVG Export Plug-In . SVG Version: 6.00 Build 0)  -->
<svg version="1.1" id="Layer_1" xmlns="http://www.w3.org/2000/svg" xmlns:xlink="http://www.w3.org/1999/xlink" x="0px" y="0px"
	 viewBox="0 0 1625 382.5" style="enable-background:new 0 0 1625 382.5;" xml:space="preserve">
<style type="text/css">
	.st0{fill:none;stroke:#2D2D2D;stroke-width:10;stroke-miterlimit:10;}
	.st1{fill:none;stroke:#2D2D2D;stroke-width:9.4912;stroke-miterlimit:10;}
</style>
<line class="st0" x1="5" y1="0" x2="5" y2="382.5"/>
<line class="st0" x1="90" y1="3" x2="90" y2="282.3"/>
<line class="st0" x1="175" y1="0" x2="175" y2="367.3"/>
<line class="st0" x1="260" y1="3" x2="260" y2="330.9"/>
<line class="st0" x1="345" y1="0" x2="345" y2="382.5"/>
<line class="st0" x1="430" y1="3" x2="430" y2="282.3"/>
<line class="st0" x1="515" y1="0" x2="515" y2="367.3"/>
<line class="st0" x1="600" y1="3" x2="600" y2="330.9"/>
<line class="st0" x1="685" y1="0" x2="685" y2="382.5"/>
<line class="st0" x1="770" y1="3" x2="770" y2="282.3"/>
<line class="st0" x1="855" y1="0" x2="855" y2="367.3"/>
<line class="st0" x1="940" y1="3" x2="940" y2="330.9"/>
<line class="st0" x1="1025" y1="0" x2="1025" y2="382.5"/>
<line class="st0" x1="1110" y1="3" x2="1110" y2="282.3"/>
<line class="st0" x1="1195" y1="0" x2="1195" y2="367.3"/>
<line class="st0" x1="1280" y1="3" x2="1280" y2="330.9"/>
<line class="st0" x1="1365" y1="0" x2="1365" y2="382.5"/>
<line class="st0" x1="1450" y1="3" x2="1450" y2="282.3"/>
<line class="st1" x1="1535" y1="0" x2="1535" y2="330.9"/>
</svg>
